<svg xmlns="http://www.w3.org/2000/svg" width="80" height="79.78" viewBox="0 0 80 79.78">
  <defs>
    <style>
      .cls-1 {
        fill: #fdd73a;
        fill-rule: evenodd;
      }
    </style>
  </defs>
  <path class="cls-1" d="M205.984,9572.45a1.556,1.556,0,0,0,0-3.11,0.079,0.079,0,0,0-.047-0.01,1.56,1.56,0,1,0,0,3.12h0.047ZM235,9531c-21.336,0-40,18.23-40,39.89,0,21.45,18.425,39.89,40,39.89,21.69,0,40-18.59,40-39.89C275,9549.42,256.545,9531,235,9531Zm34.844,41.43h1.993a36.937,36.937,0,0,1-10.343,23.62l-1.083-1.08a1.559,1.559,0,0,0-2.21,2.2l1.047,1.04a36.515,36.515,0,0,1-22.685,9.42v-1.52a1.563,1.563,0,0,0-3.125,0v1.52a37.109,37.109,0,0,1-23.176-9.86l1.468-1.47a1.559,1.559,0,0,0-2.21-2.2l-1.468,1.46a36.9,36.9,0,0,1-9.889-23.11h1.525a1.56,1.56,0,1,0,0-3.12h-1.526a36.314,36.314,0,0,1,9.442-22.62l1.047,1.04a1.559,1.559,0,0,0,2.21-2.2l-1.083-1.08a37.1,37.1,0,0,1,23.66-10.32v2.46a1.563,1.563,0,0,0,3.125,0v-2.46a37.175,37.175,0,0,1,23.175,9.87l-1.537,1.53a1.559,1.559,0,0,0,2.21,2.2l1.537-1.53a36.926,36.926,0,0,1,9.889,23.11h-1.993a1.563,1.563,0,0,0-1.563,1.56A1.546,1.546,0,0,0,269.844,9572.43ZM235,9540.35c-13.9,0-26.85,10.59-29.9,24a1.563,1.563,0,1,0,3.048.69c2.747-12.1,14.54-21.57,26.848-21.57,14.65,0,27.5,12.81,27.5,27.42s-12.85,27.43-27.5,27.43c-12.308,0-24.1-9.48-26.848-21.58a1.563,1.563,0,0,0-3.048.69c3.047,13.42,16.008,24,29.9,24,16.317,0,30.625-14.18,30.625-30.54S251.31,9540.35,235,9540.35Zm-7.812,28.98a6.23,6.23,0,1,0-6.251-6.23A6.244,6.244,0,0,0,227.188,9569.33Zm0-9.35a3.12,3.12,0,1,1-3.125,3.12A3.126,3.126,0,0,1,227.188,9559.98Zm15.625,12.47a6.235,6.235,0,1,0,6.249,6.23A6.25,6.25,0,0,0,242.813,9572.45Zm0,9.35a3.115,3.115,0,1,1,3.125-3.12A3.127,3.127,0,0,1,242.813,9581.8Zm-21.418,2.66a1.563,1.563,0,0,0,2.21,0l25-24.93a1.563,1.563,0,0,0,0-2.21,1.582,1.582,0,0,0-2.21,0l-25,24.94A1.551,1.551,0,0,0,221.4,9584.46Z" transform="translate(-195 -9531)"/>
</svg>
