<svg xmlns="http://www.w3.org/2000/svg" width="62" height="83" viewBox="0 0 62 83">
  <defs>
    <style>
      .cls-1 {
        fill: #fdd73a;
        fill-rule: evenodd;
      }
    </style>
  </defs>
  <path class="cls-1" d="M215.431,9821.97a1.625,1.625,0,1,0-1.632-1.62A1.629,1.629,0,0,0,215.431,9821.97Zm0,9.72a1.62,1.62,0,1,0-1.632-1.62A1.623,1.623,0,0,0,215.431,9831.69ZM208.905,9892h52.2a4.883,4.883,0,0,0,4.9-4.86v-57.07a1.613,1.613,0,0,0-.478-1.14l-19.577-19.46a1.648,1.648,0,0,0-1.153-.47H208.905a4.882,4.882,0,0,0-4.894,4.86v73.28A4.882,4.882,0,0,0,208.905,9892Zm37.522-77.47,14.007,13.92H246.427v-13.92Zm-39.153-.67a1.629,1.629,0,0,1,1.631-1.62h34.259v17.83a1.622,1.622,0,0,0,1.632,1.62h17.945v55.45a1.63,1.63,0,0,1-1.632,1.62h-52.2a1.629,1.629,0,0,1-1.631-1.62v-73.28Zm8.157,28.53h39.153a1.62,1.62,0,1,0,0-3.24H215.431A1.62,1.62,0,1,0,215.431,9842.39Zm0,9.73h39.153a1.62,1.62,0,1,0,0-3.24H215.431A1.62,1.62,0,1,0,215.431,9852.12Zm6.525-30.15h13.051a1.625,1.625,0,1,0,0-3.25H221.956A1.625,1.625,0,1,0,221.956,9821.97Zm0,9.72h13.051a1.62,1.62,0,1,0,0-3.24H221.956A1.62,1.62,0,1,0,221.956,9831.69Zm-6.525,30.16h39.153a1.625,1.625,0,1,0,0-3.25H215.431A1.625,1.625,0,1,0,215.431,9861.85Zm0,9.72h39.153a1.62,1.62,0,1,0,0-3.24H215.431A1.62,1.62,0,1,0,215.431,9871.57Zm0,9.73h39.153a1.62,1.62,0,1,0,0-3.24H215.431A1.62,1.62,0,1,0,215.431,9881.3Z" transform="translate(-204 -9809)"/>
</svg>
