<svg xmlns="http://www.w3.org/2000/svg" width="75.563" height="75.34" viewBox="0 0 75.563 75.34">
  <defs>
    <style>
      .cls-1 {
        fill: #fdd73a;
        fill-rule: evenodd;
      }
    </style>
  </defs>
  <path class="cls-1" d="M254.038,9722.77a1.475,1.475,0,1,0,1.476,1.47A1.474,1.474,0,0,0,254.038,9722.77Zm-48.993,25.46h60.8a4.425,4.425,0,0,0,4.427-4.41v-11a4.42,4.42,0,0,0,2.951-4.16v-8.83a4.411,4.411,0,0,0-2.951-4.16v-11a4.433,4.433,0,0,0-4.427-4.42h-1.476v-7.35a4.427,4.427,0,0,0-4.427-4.42h-4.427v-14.13a1.474,1.474,0,0,0-1.476-1.47H208a1.473,1.473,0,0,0-1.475,1.47v14.13h-1.476a7.376,7.376,0,0,0-7.378,7.36v45.03A7.376,7.376,0,0,0,205.045,9748.23Zm65.226-28.4v8.83a1.475,1.475,0,0,1-1.476,1.47H255.514a5.885,5.885,0,1,1,0-11.77H268.8A1.475,1.475,0,0,1,270.271,9719.83Zm-14.757,13.24h5.9v6.33h-54.9v-30.31h54.9v6.32h-5.9A8.83,8.83,0,1,0,255.514,9733.07Zm0-41.64h4.427a1.469,1.469,0,0,1,1.476,1.47v7.35h-5.9v-8.82Zm-5.9-15.61h2.952v24.43h-2.952v-24.43Zm-5.9,0h2.952v24.43h-2.952v-24.43Zm-34.236,0h31.285v24.43h-2.951v-17.07a1.474,1.474,0,0,0-1.476-1.47,1.475,1.475,0,0,1-1.476-1.47,1.474,1.474,0,0,0-1.476-1.47H216.851a1.474,1.474,0,0,0-1.476,1.47,1.475,1.475,0,0,1-1.476,1.47,1.473,1.473,0,0,0-1.475,1.47v17.07h-2.952v-24.43Zm25.382,8.58v15.85H215.375V9684.4a4.436,4.436,0,0,0,2.7-2.69h14.083A4.436,4.436,0,0,0,234.854,9684.4Zm-29.809,7.03h1.476v8.82H205.3A4.414,4.414,0,1,1,205.045,9691.43Zm-4.427,10.27a8.027,8.027,0,0,0,4.677,1.5h60.549a1.474,1.474,0,0,1,1.475,1.47v10.74h-2.951v-7.8a1.474,1.474,0,0,0-1.476-1.47H205.045a1.474,1.474,0,0,0-1.476,1.47v33.26a1.476,1.476,0,0,0,1.476,1.48h57.847a1.476,1.476,0,0,0,1.476-1.48v-7.8h2.951v10.75a1.474,1.474,0,0,1-1.475,1.47h-60.8a4.427,4.427,0,0,1-4.427-4.42V9701.7Zm59.323,24.02h5.9a1.475,1.475,0,1,0,0-2.95h-5.9A1.475,1.475,0,1,0,259.941,9725.72Z" transform="translate(-197.656 -9672.88)"/>
</svg>
